<svg xmlns="http://www.w3.org/2000/svg" height="512" viewBox="0 0 512 512" width="512"><rect height="512" rx="64" ry="64" width="512" fill="#6b6b6b"/><path d="M84.4612061 146.0922837c-2.98152108 2.82053627-4.8425682 6.82226322-4.8425682 11.26719494v184.26408652c0 8.54833644 6.7474311 15.47812374 15.42008497 15.47812374h322.7360869c8.516284 0 15.42009113-6.91701243 15.42009113-15.47812374V157.35947864c0-4.45404784-1.8318325-8.46868032-4.81335665-11.29259862L256.4067694 295.6101649 84.4612061 146.0922837zm10.58557677-19.5838098c-17.0109368 0-30.80102597 13.7512542-30.80102597 30.6544517v184.6571972c0 16.92998476 13.6782238 30.6544471 30.80102597 30.6544471H417.7667544c17.01093833 0 30.8010275-13.75125727 30.8010275-30.6544471V157.1629256c0-16.92998628-13.67822072-30.6544517-30.8010275-30.6544517H95.04678286zM256.4067694 275.62560407l153.72881-133.74424917h-307.45762l153.72881 133.74424917z" fill="#fff" stroke="#fff" fill-rule="evenodd" stroke-width="15.372881"/></svg>