<svg height="512" viewBox="0 0 512 512" width="512" xmlns="http://www.w3.org/2000/svg"><rect height="512" rx="64" ry="64" width="512" fill="#e84352"/><path d="M388.75443 88.862001H123.24694c-26.09447 0-47.24687 21.323449-47.24687 47.610359v131.89635c0 2.44751.18389 4.85227.54453 7.20285-.3692 3.51234-.54453 7.06459-.54453 10.65104 0 75.60353 80.5841 136.9154 179.99851 136.9154 99.41295 0 180.00135-61.31187 180.00135-136.9154 0-3.58788-.1925-7.1387-.5459-10.65104.3534-2.34915.5459-4.75534.5459-7.20285V136.47377c0-26.29545-21.1752-47.611769-47.2455-47.611769zm-22.3725 132.596259l-92.96994 92.95993c-4.72255 4.72255-10.92758 7.0489-17.11977 6.99616-6.38463.21951-12.83483-2.10969-17.72132-6.99616l-92.94852-92.95993c-9.33961-9.33533-9.31681-24.47799 0-33.79622 9.3282-9.3382 24.44378-9.35244 33.79622 0l76.58141 76.58567 76.58562-76.58567c9.3097-9.3382 24.4809-9.31396 33.7963 0 9.341 9.33248 9.341 24.44663 0 33.79622z" fill="#fff"/></svg>