<svg height="512" viewBox="0 0 512 512" width="512" xmlns="http://www.w3.org/2000/svg"><rect height="512" rx="64" ry="64" width="512" fill="#00abf1"/><path d="M456.0000005 131.94143215c-14.71678187 6.53070494-30.52721568 10.93793784-47.12774564 12.92381684 16.93529242-10.1563526 29.9498923-26.243391 36.08058446-45.39719395-15.85582533 9.40455555-33.42376205 16.2260499-52.12081284 19.90843697-14.9607613-15.9522823-36.29619418-25.91430246-59.89269215-25.91430246-45.3248512 0-82.07212362 36.7472724-82.07212362 82.06644967 0 6.4299925.72768282 12.6897668 2.129146 18.7041432-68.20785123-3.4313152-128.67077435-36.0947693-169.14724383-85.75309218-7.06547378 12.12095433-11.110993 26.2136028-11.110993 41.26231017 0 28.47183092 14.48273185 53.58610784 36.50471147 68.30288972-13.4458193-.42838247-26.09728703-4.11644347-37.16998094-10.2613205-.00425545.33759944-.00425545.68370978-.00425545 1.02982012 0 39.75871606 28.29026484 72.92431385 65.8276334 80.476328-6.88674468 1.86530776-14.1394585 2.87526908-21.61487444 2.87526908-5.2952045 0-10.43153868-.5290949-15.43737224-1.47664288 10.4400496 32.5967853 40.75023708 56.32662086 76.6535109 56.98905336-28.07891056 22.0148872-63.46585586 35.13587345-101.92382118 35.13587345-6.61723252 0-13.14935595-.39008338-19.5736745-1.15748376 36.32598235 23.29436068 79.46069272 36.8820285 125.80259767 36.8820285 150.94382582 0 233.4911419-125.04796367 233.4911419-233.49114192 0-3.5660713-.08227212-7.1023544-.23405002-10.62445265 16.02178808-11.5734191 29.94421835-26.02068884 40.94031407-42.48078878z" fill="#fff"/></svg>