<?xml version="1.0" encoding="UTF-8" standalone="no"?><!DOCTYPE svg PUBLIC "-//W3C//DTD SVG 1.1//EN" "http://www.w3.org/Graphics/SVG/1.1/DTD/svg11.dtd"><svg width="59px" height="55px" version="1.1" xmlns="http://www.w3.org/2000/svg" xmlns:xlink="http://www.w3.org/1999/xlink" xml:space="preserve" xmlns:serif="http://www.serif.com/" style="fill-rule:evenodd;clip-rule:evenodd;stroke-miterlimit:10;"><rect id="picto-silex" x="0" y="0.04" width="59" height="54" style="fill:none;"/><g id="picto-silex1" serif:id="picto-silex"><g><g><clipPath id="_clip1"><rect x="13.756" y="11.214" width="31.623" height="31.623" clip-rule="nonzero"/></clipPath><g clip-path="url(#_clip1)"><path d="M121.597,46.443c-1.047,32.853 -28.528,58.638 -61.382,57.592c-32.853,-1.047 -58.638,-28.528 -57.592,-61.381c1.047,-32.854 28.528,-58.639 61.381,-57.593c32.854,1.047 58.639,28.528 57.593,61.382" style="fill:#56e3ff;fill-rule:nonzero;"/><path d="M107.99,33.176c-0.782,24.563 -21.329,43.842 -45.892,43.059c-24.563,-0.782 -43.842,-21.329 -43.06,-45.892c0.783,-24.564 21.33,-43.842 45.893,-43.06c24.563,0.783 43.842,21.329 43.059,45.893" style="fill:#8873fe;fill-rule:nonzero;"/><path d="M97.691,21.754c-0.616,19.344 -16.797,34.526 -36.14,33.909c-19.344,-0.616 -34.526,-16.796 -33.91,-36.139c0.616,-19.344 16.797,-34.526 36.141,-33.91c19.343,0.616 34.525,16.797 33.909,36.14" style="fill:#ff557a;fill-rule:nonzero;"/><path d="M90.17,13.167c-0.479,15.045 -13.064,26.853 -28.109,26.374c-15.045,-0.479 -26.853,-13.064 -26.374,-28.109c0.479,-15.045 13.064,-26.853 28.109,-26.374c15.045,0.479 26.853,13.064 26.374,28.109" style="fill:#ffac54;fill-rule:nonzero;"/></g></g><rect x="13.756" y="11.214" width="31.623" height="31.623" style="fill:none;stroke:#333;stroke-width:1.16px;"/><path d="M47.802,14.152l-5.116,0c-0.214,0 -0.387,-0.173 -0.387,-0.387l-0,-5.116c-0,-0.213 0.173,-0.387 0.387,-0.387l5.116,0c0.213,0 0.387,0.174 0.387,0.387l-0,5.116c-0,0.214 -0.174,0.387 -0.387,0.387Z" style="fill:#fff;fill-rule:nonzero;stroke:#333;stroke-width:1.16px;"/><path d="M47.802,45.817l-5.116,-0c-0.214,-0 -0.387,-0.174 -0.387,-0.387l-0,-5.116c-0,-0.213 0.173,-0.387 0.387,-0.387l5.116,0c0.213,0 0.387,0.174 0.387,0.387l-0,5.116c-0,0.213 -0.174,0.387 -0.387,0.387Z" style="fill:#fff;fill-rule:nonzero;stroke:#333;stroke-width:1.16px;"/><path d="M16.314,14.152l-5.116,0c-0.213,0 -0.387,-0.173 -0.387,-0.387l0,-5.116c0,-0.213 0.174,-0.387 0.387,-0.387l5.116,0c0.214,0 0.387,0.174 0.387,0.387l0,5.116c0,0.214 -0.173,0.387 -0.387,0.387Z" style="fill:#fff;fill-rule:nonzero;stroke:#333;stroke-width:1.16px;"/><path d="M16.314,45.817l-5.116,-0c-0.213,-0 -0.387,-0.174 -0.387,-0.387l0,-5.116c0,-0.213 0.174,-0.387 0.387,-0.387l5.116,0c0.214,0 0.387,0.174 0.387,0.387l0,5.116c0,0.213 -0.173,0.387 -0.387,0.387Z" style="fill:#fff;fill-rule:nonzero;stroke:#333;stroke-width:1.16px;"/></g></g></svg>